<?xml version="1.0" standalone="no"?>
<!DOCTYPE svg PUBLIC "-//W3C//DTD SVG 20010904//EN" "http://www.w3.org/TR/2001/REC-SVG-20010904/DTD/svg10.dtd">
<svg xmlns="http://www.w3.org/2000/svg" version="1.0" width="2287" height="2287" viewBox="0 0 2287.000000 2287.000000" preserveAspectRatio="xMidYMid meet">

<g transform="translate(0.000000,2287.000000) scale(0.100000,-0.100000)" fill="#000000" stroke="none">
<path d="M11148 22805 c-2 -2 -59 -5 -128 -6 -156 -3 -665 -40 -825 -60 -44 -5 -116 -14 -160 -19 -190 -21 -266 -31 -432 -60 -32 -5 -101 -17 -153 -25 -165 -27 -204 -34 -250 -45 -66 -15 -139 -30 -190 -39 -98 -18 -214 -45 -400 -93 -107 -28 -211 -54 -230 -58 -67 -15 -229 -62 -430 -125 -47 -14 -114 -35 -150 -46 -36 -11 -74 -23 -85 -28 -11 -5 -81 -30 -155 -55 -74 -26 -143 -51 -152 -57 -10 -5 -25 -9 -33 -9 -8 0 -23 -4 -33 -10 -9 -5 -130 -54 -268 -109 -138 -55 -309 -127 -380 -159 -71 -32 -149 -67 -174 -78 -52 -22 -583 -287 -620 -309 -14 -8 -92 -53 -175 -98 -185 -103 -192 -107 -342 -200 -66 -41 -125 -76 -130 -79 -44 -20 -516 -337 -658 -443 -60 -45 -150 -110 -199 -146 -82 -59 -151 -113 -201 -158 -11 -10 -42 -34 -69 -55 -63 -48 -192 -152 -236 -192 -19 -17 -62 -55 -95 -85 -33 -30 -92 -81 -130 -114 -38 -33 -92 -80 -120 -104 -97 -86 -681 -678 -760 -771 -44 -51 -105 -121 -135 -154 -57 -62 -181 -210 -235 -280 -16 -22 -46 -58 -65 -81 -19 -23 -42 -51 -51 -62 -17 -21 -99 -129 -139 -183 -14 -18 -35 -46 -48 -61 -12 -15 -22 -30 -22 -33 0 -3 -20 -32 -45 -64 -91 -116 -215 -296 -215 -312 0 -5 -4 -10 -8 -10 -5 0 -15 -12 -23 -27 -8 -16 -17 -30 -20 -33 -20 -18 -146 -214 -156 -242 -3 -10 -9 -18 -14 -18 -5 0 -9 -7 -9 -15 0 -8 -4 -15 -10 -15 -5 0 -10 -5 -10 -11 0 -6 -25 -49 -55 -95 -30 -47 -55 -89 -55 -94 0 -6 -3 -10 -8 -10 -4 0 -13 -15 -21 -32 -8 -18 -17 -35 -20 -38 -6 -5 -54 -93 -75 -137 -6 -13 -14 -23 -18 -23 -5 0 -8 -9 -8 -20 0 -11 -3 -20 -7 -20 -5 0 -13 -10 -19 -23 -37 -75 -80 -154 -89 -163 -5 -6 -21 -35 -35 -65 -14 -30 -28 -55 -32 -57 -5 -2 -8 -12 -8 -23 0 -10 -4 -19 -10 -19 -5 0 -10 -9 -10 -20 0 -11 -4 -20 -10 -20 -5 0 -10 -6 -10 -14 0 -7 -12 -35 -26 -60 -15 -26 -24 -50 -20 -53 8 -9 4 -16 88 152 41 83 86 168 98 190 13 22 36 65 53 95 16 30 41 75 55 100 14 25 37 66 51 92 14 26 46 80 71 120 25 40 50 82 56 93 36 65 310 492 324 505 3 3 30 41 59 85 196 289 497 671 796 1009 146 166 576 605 720 737 204 186 542 465 552 455 2 -2 -49 -55 -114 -117 -136 -130 -596 -590 -694 -694 -55 -59 -243 -268 -354 -396 -422 -484 -918 -1183 -1263 -1779 -354 -612 -712 -1396 -902 -1975 -18 -55 -43 -127 -55 -160 -12 -33 -41 -125 -65 -205 -23 -80 -59 -202 -80 -271 -153 -501 -309 -1311 -380 -1974 -57 -525 -54 -453 -58 -1440 -2 -628 0 -946 7 -980 6 -27 27 -149 46 -270 19 -121 39 -242 45 -270 18 -94 21 -110 31 -153 5 -23 13 -61 18 -85 5 -23 17 -76 26 -117 9 -41 21 -93 25 -115 12 -55 43 -180 59 -235 5 -19 27 -105 49 -190 40 -155 115 -399 133 -432 5 -10 9 -27 9 -38 0 -11 4 -28 9 -38 5 -9 19 -51 32 -92 12 -41 26 -79 30 -85 3 -5 16 -37 27 -70 11 -33 35 -98 52 -145 18 -47 34 -94 37 -105 3 -11 14 -40 25 -64 10 -24 28 -67 39 -95 11 -28 32 -78 46 -111 14 -33 29 -69 33 -80 24 -64 67 -162 147 -335 56 -120 216 -442 281 -565 78 -147 102 -190 181 -325 31 -52 63 -109 71 -125 8 -17 42 -73 76 -125 33 -53 63 -100 65 -105 7 -18 232 -358 284 -430 20 -27 63 -90 97 -140 34 -49 93 -130 132 -180 88 -110 188 -241 201 -264 6 -9 12 -18 15 -21 3 -3 18 -21 34 -40 15 -19 44 -54 65 -78 20 -24 54 -65 76 -91 22 -26 56 -67 75 -90 60 -73 151 -177 232 -261 18 -20 69 -76 113 -124 129 -144 427 -439 615 -610 96 -88 184 -169 196 -180 11 -12 40 -37 63 -56 119 -97 190 -156 231 -194 25 -22 77 -65 115 -93 122 -91 247 -187 264 -203 9 -9 35 -29 56 -45 22 -17 46 -36 54 -43 7 -7 29 -22 50 -32 20 -11 81 -53 136 -94 100 -75 212 -152 315 -218 30 -19 75 -48 99 -64 117 -76 179 -115 209 -130 17 -9 32 -20 32 -25 0 -5 5 -9 12 -9 10 0 45 -20 206 -117 21 -12 44 -25 52 -29 8 -4 33 -19 55 -34 22 -14 76 -45 120 -67 150 -76 291 -150 331 -174 21 -14 50 -29 64 -35 14 -7 45 -20 70 -31 25 -11 110 -52 190 -91 80 -39 163 -78 185 -87 64 -27 73 -31 205 -86 69 -28 148 -62 175 -74 28 -12 82 -34 120 -48 235 -88 306 -114 355 -135 31 -13 119 -41 235 -77 50 -16 94 -32 99 -37 6 -4 18 -8 28 -8 10 0 26 -4 36 -9 17 -8 102 -36 192 -61 25 -7 56 -16 70 -20 14 -4 54 -15 90 -25 36 -9 92 -25 125 -35 33 -10 80 -24 105 -31 25 -6 59 -15 75 -20 17 -4 68 -16 115 -25 47 -9 128 -28 180 -41 109 -29 170 -42 220 -49 19 -2 43 -7 54 -10 10 -3 43 -10 75 -15 31 -6 76 -14 101 -19 83 -17 154 -29 390 -65 283 -43 247 -39 695 -86 44 -5 139 -11 210 -14 72 -3 173 -10 225 -16 98 -12 1127 -15 1270 -5 160 12 337 26 390 31 30 3 89 7 130 10 74 5 135 12 300 34 47 6 123 16 170 22 47 6 126 18 175 26 50 8 119 19 155 24 36 6 90 15 120 20 30 6 80 14 110 19 53 8 113 20 195 39 22 5 117 26 210 46 215 47 224 49 320 75 99 27 137 36 195 49 25 5 65 16 90 24 52 17 181 56 290 87 90 26 229 73 405 135 72 26 144 50 160 54 35 10 102 35 162 62 24 10 46 19 49 19 10 0 281 108 352 141 35 16 65 29 67 29 3 0 42 18 87 39 46 21 117 53 158 71 114 49 610 298 740 372 131 74 195 110 262 147 26 14 90 53 143 86 53 33 104 65 113 70 9 6 51 30 92 54 41 25 83 51 93 59 9 9 26 20 36 26 16 9 329 220 395 266 33 23 319 237 421 314 28 21 70 55 94 75 105 87 131 109 191 156 34 28 88 73 119 101 31 28 72 64 91 80 19 16 42 35 50 44 8 8 47 42 85 75 157 133 754 728 807 803 8 13 38 46 64 75 27 29 67 73 89 98 22 25 64 72 92 105 48 54 93 109 178 218 17 22 55 69 85 106 78 94 110 135 205 266 11 15 30 40 43 55 12 15 22 30 22 33 0 3 6 14 14 23 39 49 113 152 125 176 8 15 18 27 23 27 4 0 8 6 8 13 0 7 8 22 18 33 9 11 22 27 27 36 53 82 89 134 96 136 5 2 9 9 9 16 0 7 8 21 18 32 22 25 52 74 59 97 3 9 9 17 14 17 5 0 9 4 9 10 0 9 39 72 60 97 5 7 10 17 10 23 0 6 9 20 20 32 11 12 26 34 32 50 7 15 16 28 20 28 5 0 8 4 8 9 0 14 72 135 82 139 4 2 8 12 8 22 0 10 3 20 8 22 4 2 21 30 38 63 17 33 56 104 88 159 31 54 56 102 56 107 0 5 5 9 10 9 6 0 10 7 10 15 0 8 9 30 20 50 11 20 20 42 20 49 0 8 3 16 8 18 10 4 62 107 62 124 0 8 5 14 10 14 6 0 10 9 10 20 0 11 5 20 10 20 6 0 10 7 10 15 0 8 5 15 10 15 6 0 10 5 10 12 0 7 17 48 39 93 35 73 60 127 81 180 5 11 14 35 22 53 7 17 16 32 20 32 5 0 8 7 8 15 0 8 9 37 21 63 36 82 70 156 80 174 5 10 9 27 9 38 0 11 5 20 10 20 6 0 10 8 10 18 0 10 9 37 20 60 11 22 20 46 20 52 0 5 4 18 9 28 5 9 13 28 19 42 45 113 63 161 73 200 7 25 16 49 21 55 4 5 8 19 8 32 0 13 5 23 10 23 6 0 10 11 10 25 0 14 4 33 9 43 17 33 29 68 66 187 20 66 41 128 46 137 5 10 9 29 9 42 0 14 5 28 10 31 6 3 10 19 10 36 0 16 5 38 10 49 6 11 15 29 20 40 6 11 10 29 10 39 0 11 4 30 9 43 14 35 65 234 81 313 5 22 18 76 30 120 12 44 24 96 27 115 2 19 8 44 13 55 9 20 15 59 26 160 3 28 10 54 15 60 5 5 9 26 9 47 0 21 4 46 9 56 6 9 13 38 16 64 3 27 10 48 16 48 5 0 9 45 9 102 0 56 -2 99 -5 96 -3 -3 -21 -97 -40 -209 -66 -390 -157 -792 -251 -1114 -20 -66 -42 -145 -50 -175 -16 -60 -135 -424 -164 -505 -33 -90 -152 -399 -165 -430 -7 -16 -21 -50 -31 -75 -9 -25 -32 -77 -50 -117 -19 -40 -34 -75 -34 -78 0 -6 -37 -90 -51 -117 -5 -10 -9 -25 -9 -33 0 -8 -3 -15 -8 -15 -4 0 -13 -15 -21 -33 -8 -17 -38 -84 -68 -147 -30 -63 -64 -135 -76 -160 -12 -25 -34 -67 -49 -93 -15 -26 -28 -52 -28 -57 0 -4 -19 -41 -43 -82 -23 -40 -54 -95 -67 -123 -14 -27 -28 -51 -32 -53 -5 -2 -8 -7 -8 -12 0 -11 -131 -238 -243 -423 -588 -963 -1443 -1956 -2227 -2586 -58 -47 -107 -88 -110 -91 -9 -13 -50 -31 -50 -23 0 5 73 78 163 163 961 913 1741 1903 2314 2935 45 83 90 161 98 175 9 14 71 135 139 270 108 214 156 319 312 670 68 155 208 523 289 760 247 724 416 1436 519 2185 14 99 30 209 36 245 8 46 10 488 7 1505 -3 1286 -5 1449 -20 1520 -9 44 -21 105 -27 135 -5 30 -14 73 -19 95 -24 105 -34 154 -42 195 -4 25 -12 63 -17 85 -6 22 -15 63 -21 90 -15 68 -22 97 -70 267 -22 82 -41 157 -41 167 0 11 -4 23 -10 26 -5 3 -10 16 -10 27 0 20 -12 66 -30 113 -5 11 -29 88 -55 170 -84 264 -103 319 -170 495 -20 52 -40 109 -44 125 -4 17 -16 48 -25 70 -10 22 -22 49 -26 60 -4 11 -17 41 -29 67 -12 26 -21 50 -21 53 0 2 -12 30 -26 62 -14 32 -29 67 -33 78 -5 11 -13 31 -18 45 -13 31 -36 80 -107 233 -31 65 -56 121 -56 124 0 7 -170 345 -180 358 -4 6 -38 68 -75 139 -77 148 -87 167 -147 267 -46 76 -120 207 -127 224 -2 5 -8 14 -13 20 -4 5 -81 123 -169 260 -89 138 -171 262 -183 277 -11 14 -50 68 -85 120 -70 100 -238 328 -292 395 -19 23 -45 56 -59 74 -23 32 -56 71 -268 324 -313 375 -779 849 -1158 1177 -35 31 -91 79 -122 106 -187 164 -400 331 -792 619 -36 26 -66 51 -68 56 -2 4 -9 7 -16 7 -7 0 -21 8 -32 18 -16 14 -89 66 -152 107 -243 159 -449 289 -531 336 -100 57 -122 70 -158 90 -86 48 -128 73 -133 79 -3 3 -34 20 -70 38 -36 19 -112 59 -170 90 -117 61 -398 202 -405 202 -2 0 -57 26 -122 58 -65 32 -134 64 -153 72 -19 7 -66 28 -105 45 -38 17 -86 37 -105 44 -19 7 -53 21 -75 31 -101 45 -106 47 -380 151 -158 59 -335 121 -440 154 -66 21 -129 41 -140 45 -18 7 -119 38 -190 60 -16 5 -88 25 -160 45 -71 19 -148 40 -170 46 -90 26 -158 43 -290 74 -285 68 -299 71 -435 95 -36 7 -108 20 -160 30 -52 11 -126 24 -165 30 -38 6 -92 15 -120 20 -27 5 -88 15 -135 21 -47 6 -110 15 -140 20 -30 5 -95 13 -145 18 -49 5 -97 12 -105 14 -8 3 -55 8 -105 11 -49 3 -106 8 -125 10 -70 10 -278 26 -409 31 -74 3 -137 8 -141 10 -9 6 -877 15 -882 10z m817 -888 c159 -20 229 -31 365 -58 58 -11 122 -23 143 -26 20 -3 40 -9 43 -14 3 -5 17 -9 31 -9 15 0 40 -4 57 -9 71 -22 333 -104 361 -113 17 -6 49 -19 72 -29 24 -11 46 -19 51 -19 5 0 27 -9 50 -20 22 -11 45 -20 51 -20 10 0 252 -113 326 -152 149 -78 211 -112 215 -117 3 -3 19 -13 35 -21 35 -17 334 -218 353 -237 7 -7 16 -13 20 -13 4 0 21 -14 39 -30 18 -17 35 -30 39 -30 18 0 342 -289 454 -406 241 -250 477 -563 633 -839 56 -98 186 -356 225 -445 18 -41 38 -83 43 -92 5 -10 9 -25 9 -33 0 -8 4 -23 9 -33 28 -53 121 -327 121 -356 0 -9 4 -24 9 -34 10 -20 26 -75 40 -147 6 -27 17 -79 25 -115 36 -159 72 -428 86 -650 28 -424 -34 -956 -162 -1395 -85 -290 -241 -663 -373 -890 -119 -205 -249 -401 -347 -523 l-58 -72 32 -20 c17 -10 36 -16 42 -13 17 10 80 57 86 64 8 10 212 144 265 174 28 16 52 32 55 36 3 3 43 26 90 51 47 25 108 59 135 75 60 35 180 93 193 93 5 0 46 18 92 41 46 22 104 47 129 55 25 9 60 21 76 29 82 37 434 143 567 171 40 8 91 19 113 24 144 30 391 65 562 80 282 24 734 6 1021 -40 230 -37 238 -39 452 -94 211 -55 372 -106 545 -176 139 -56 441 -202 540 -261 33 -20 92 -55 132 -78 40 -24 77 -49 84 -57 6 -8 16 -14 21 -14 11 0 110 -67 203 -137 39 -29 83 -63 100 -76 115 -87 204 -166 375 -335 107 -106 215 -218 240 -248 25 -31 60 -72 78 -93 67 -73 292 -390 292 -410 0 -5 7 -14 15 -21 15 -13 28 -34 154 -260 38 -67 72 -137 111 -225 12 -27 38 -83 57 -122 18 -40 42 -98 52 -130 10 -32 30 -87 44 -123 14 -36 37 -105 52 -155 15 -49 30 -101 35 -115 23 -72 70 -280 70 -307 0 -12 4 -32 9 -45 9 -23 18 -79 46 -293 32 -249 35 -616 5 -920 -11 -111 -53 -388 -71 -457 -5 -21 -13 -55 -18 -75 -6 -21 -15 -60 -21 -88 -16 -66 -99 -335 -111 -357 -5 -10 -9 -26 -9 -36 0 -10 -4 -22 -8 -27 -5 -6 -28 -59 -52 -120 -55 -140 -190 -412 -263 -534 -31 -51 -57 -96 -57 -98 0 -5 -184 -275 -206 -302 -7 -9 -48 -61 -90 -116 -223 -286 -591 -636 -880 -835 -12 -8 -55 -38 -97 -67 -84 -59 -232 -149 -322 -198 -33 -18 -87 -47 -120 -65 -75 -41 -120 -64 -165 -83 -19 -8 -55 -24 -80 -35 -136 -60 -189 -82 -198 -82 -5 0 -31 -9 -58 -21 -77 -32 -85 -35 -154 -57 -135 -43 -359 -102 -460 -123 -58 -12 -125 -25 -150 -31 -25 -5 -76 -13 -115 -18 -38 -5 -126 -16 -195 -26 -159 -22 -763 -26 -935 -6 -166 19 -450 66 -550 91 -22 5 -71 17 -110 25 -66 15 -116 29 -329 97 -152 49 -373 140 -561 232 -99 49 -187 94 -195 102 -8 7 -40 26 -70 41 -123 64 -506 334 -618 435 -20 18 -39 28 -48 25 -15 -6 14 -45 133 -176 18 -20 51 -63 75 -95 23 -33 65 -90 93 -127 27 -37 66 -93 85 -124 19 -32 56 -91 83 -131 26 -41 47 -75 47 -77 0 -3 17 -35 38 -73 72 -128 114 -208 139 -268 14 -33 40 -92 58 -130 19 -39 41 -93 50 -120 9 -28 20 -59 25 -70 20 -46 60 -154 60 -163 0 -5 9 -38 20 -73 47 -148 60 -198 76 -274 9 -44 20 -98 25 -120 66 -308 97 -697 80 -1015 -9 -191 -15 -246 -41 -440 -19 -131 -106 -530 -130 -595 -4 -11 -22 -65 -40 -120 -62 -188 -201 -514 -282 -660 -13 -22 -71 -124 -98 -170 -64 -111 -93 -157 -113 -182 -13 -15 -38 -52 -56 -81 -50 -79 -222 -294 -347 -432 -182 -204 -464 -457 -673 -606 -45 -32 -106 -76 -135 -96 -28 -20 -54 -37 -58 -38 -4 0 -45 -24 -90 -53 -46 -30 -112 -69 -148 -89 -166 -90 -279 -148 -329 -168 -30 -11 -73 -29 -95 -39 -23 -11 -72 -33 -110 -50 -38 -17 -77 -31 -87 -31 -10 0 -21 -4 -24 -10 -3 -5 -16 -10 -29 -10 -12 0 -26 -4 -32 -8 -25 -22 -347 -115 -524 -152 -393 -83 -788 -117 -1155 -100 -237 10 -468 35 -566 61 -20 5 -48 9 -63 9 -28 0 -33 1 -291 65 -172 42 -421 119 -488 149 -18 8 -75 31 -127 51 -52 20 -129 54 -170 75 -41 21 -118 60 -170 86 -52 26 -122 63 -155 83 -33 20 -76 44 -96 54 -20 9 -42 23 -49 32 -7 8 -18 15 -25 15 -8 0 -27 11 -43 25 -17 14 -34 25 -39 25 -6 0 -18 9 -28 20 -10 11 -22 20 -27 20 -8 0 -69 44 -208 151 -290 222 -606 541 -833 842 -53 70 -97 131 -97 136 0 5 -7 14 -15 21 -7 6 -28 35 -45 63 -16 29 -49 81 -71 117 -41 64 -63 103 -131 230 -19 36 -39 74 -45 85 -6 11 -21 43 -34 70 -12 28 -37 83 -56 124 -31 68 -57 133 -115 291 -11 30 -24 64 -28 75 -5 11 -18 54 -30 95 -11 41 -28 100 -37 130 -16 56 -37 148 -53 230 -5 25 -14 68 -20 95 -16 75 -45 288 -61 449 -13 142 -13 484 1 646 26 307 46 436 111 700 38 151 151 511 169 535 4 6 22 48 39 94 34 88 180 387 211 431 10 14 27 42 39 63 11 20 30 54 42 74 11 20 46 75 77 121 32 46 62 91 67 100 6 9 16 22 23 30 6 7 17 23 23 34 6 12 39 55 73 97 33 42 68 85 76 95 8 11 43 52 77 92 74 86 67 106 -15 40 -127 -104 -318 -245 -391 -291 -8 -5 -41 -27 -73 -48 -31 -20 -60 -37 -64 -37 -4 0 -21 -10 -38 -23 -31 -24 -188 -109 -326 -178 -109 -54 -286 -129 -395 -169 -33 -12 -68 -26 -77 -31 -10 -5 -27 -9 -37 -9 -11 0 -23 -5 -26 -10 -3 -6 -15 -10 -26 -10 -10 0 -27 -4 -37 -9 -15 -8 -87 -29 -262 -77 -30 -9 -77 -20 -105 -25 -115 -23 -142 -28 -185 -38 -25 -6 -137 -22 -250 -37 -186 -25 -236 -27 -540 -28 -316 -1 -498 9 -652 34 -156 26 -187 32 -238 41 -77 15 -219 48 -256 59 -17 6 -38 10 -47 10 -26 0 -340 102 -404 131 -24 10 -46 19 -51 19 -31 0 -436 187 -544 251 -29 18 -76 44 -104 59 -47 25 -173 106 -201 130 -7 6 -24 15 -38 22 -14 6 -25 14 -25 18 0 4 -11 12 -25 18 -89 41 -463 359 -655 558 -87 90 -121 128 -247 275 -22 26 -69 87 -104 135 -34 49 -66 91 -70 94 -4 3 -23 30 -41 60 -18 30 -56 89 -84 130 -63 94 -112 180 -202 355 -40 76 -109 230 -142 315 -18 47 -37 89 -42 95 -4 5 -8 18 -8 30 0 12 -4 25 -8 30 -22 25 -109 322 -153 525 -33 148 -39 180 -49 255 -5 39 -16 122 -24 185 -38 285 -27 842 23 1125 16 90 49 255 60 300 48 197 83 319 102 357 5 10 9 25 9 33 0 8 4 23 9 33 5 9 14 35 21 57 41 130 241 564 300 651 17 23 30 45 30 47 0 16 201 326 248 382 4 6 32 41 61 79 134 173 197 244 375 421 94 94 185 182 201 195 17 14 52 43 80 65 27 22 62 51 78 65 118 102 414 300 626 418 127 70 399 202 417 202 3 0 30 11 60 25 30 14 58 25 62 25 8 0 110 39 134 51 10 5 27 9 37 9 11 0 22 4 25 9 3 5 16 11 28 14 13 2 79 21 148 41 522 153 1149 211 1683 156 105 -11 219 -25 252 -30 33 -6 85 -15 115 -20 108 -18 166 -30 245 -50 44 -12 107 -27 140 -35 262 -60 819 -294 1085 -455 109 -67 316 -204 356 -236 23 -19 45 -34 49 -34 5 0 17 -7 26 -16 17 -15 20 -15 44 0 14 9 25 20 25 25 0 5 -37 58 -82 118 -142 189 -335 501 -412 668 -10 22 -31 67 -46 100 -59 125 -88 191 -95 215 -4 14 -13 39 -21 55 -46 103 -153 465 -184 625 -5 25 -14 68 -20 95 -11 53 -21 118 -45 310 -46 365 -32 834 36 1215 43 240 69 339 166 640 97 299 294 691 506 1005 275 408 693 835 1072 1097 33 22 69 49 80 59 11 10 46 33 77 51 31 18 110 65 175 104 121 74 286 161 383 203 30 13 88 39 128 58 40 18 78 33 85 33 7 0 17 4 22 9 6 5 59 26 119 46 60 20 117 40 127 46 10 5 60 21 111 34 51 14 127 34 168 45 171 47 528 109 735 129 150 15 751 6 900 -12z m7000 -18877 c-10 -11 -21 -18 -23 -15 -3 3 3 12 14 20 27 20 30 18 9 -5z"/>
<path d="M1007 16326 c-15 -27 -27 -52 -27 -56 0 -4 -13 -34 -30 -65 -16 -31 -30 -66 -30 -76 0 -10 -4 -19 -10 -19 -5 0 -10 -11 -10 -24 0 -13 -4 -26 -9 -28 -9 -3 -49 -87 -72 -150 -7 -21 -17 -38 -21 -38 -4 0 -8 -9 -8 -19 0 -17 -12 -46 -51 -123 -5 -10 -9 -28 -8 -40 0 -27 5 -18 60 112 17 41 42 99 55 128 13 29 24 59 24 67 0 8 5 15 10 15 6 0 10 6 10 14 0 8 7 27 15 43 8 15 42 86 75 157 61 131 77 191 27 102z"/>
<path d="M705 15638 c-4 -13 -15 -42 -26 -65 -10 -23 -24 -60 -31 -82 -7 -23 -16 -41 -20 -41 -5 0 -8 -11 -8 -24 0 -14 -4 -28 -10 -31 -5 -3 -10 -17 -10 -31 0 -13 -4 -24 -10 -24 -5 0 -10 -11 -10 -24 0 -14 -4 -28 -10 -31 -5 -3 -10 -17 -10 -31 0 -13 -4 -32 -9 -42 -24 -45 -101 -264 -101 -285 0 -9 -4 -19 -10 -22 -5 -3 -10 -19 -10 -36 0 -16 -4 -29 -10 -29 -5 0 -10 -18 -10 -40 0 -22 -4 -40 -10 -40 -5 0 -10 -8 -10 -17 0 -10 -6 -35 -14 -58 -8 -22 -24 -74 -36 -115 -11 -41 -25 -83 -30 -92 -6 -10 -10 -31 -10 -47 0 -17 -4 -33 -10 -36 -5 -3 -10 -21 -10 -40 0 -19 -5 -37 -10 -40 -5 -3 -10 -23 -10 -44 0 -20 -4 -41 -9 -46 -6 -6 -12 -26 -14 -45 -2 -19 -7 -42 -9 -50 -9 -24 -26 -90 -43 -165 -9 -38 -20 -84 -26 -101 -5 -17 -9 -46 -9 -65 0 -19 -4 -39 -10 -45 -5 -5 -10 -31 -11 -57 -1 -26 -6 -50 -11 -53 -4 -3 -8 -20 -8 -38 0 -17 -4 -36 -9 -42 -5 -5 -12 -31 -15 -59 -7 -73 -23 -178 -41 -280 -9 -49 -19 -114 -22 -143 -3 -29 -9 -55 -14 -58 -5 -3 -9 -71 -9 -151 0 -81 3 -144 6 -140 4 3 14 77 24 164 28 239 27 233 64 471 58 364 179 914 261 1183 14 46 32 107 40 134 47 166 210 651 255 760 4 11 18 47 30 80 12 33 29 74 36 92 16 37 17 43 5 43 -5 0 -13 -10 -16 -22z"/>
</g>
</svg>